<svg width="54.000000" height="56.000000" viewBox="0 0 54 56" fill="none" xmlns="http://www.w3.org/2000/svg" xmlns:xlink="http://www.w3.org/1999/xlink">
	<desc>
			Created with Pixso.
	</desc>
	<defs/>
	<path id="XMLID_282_" d="M53.79 11.56C53.79 8.31 52.53 5.25 50.23 2.95C47.94 0.66 44.88 -0.61 41.63 -0.61C38.37 -0.61 35.31 0.66 33.02 2.95L29.22 6.75C28.79 7.18 28.79 7.87 29.22 8.3C29.65 8.72 30.34 8.72 30.77 8.3L34.56 4.5C36.45 2.62 38.96 1.58 41.63 1.58C44.3 1.58 46.81 2.62 48.69 4.5C50.57 6.38 51.61 8.89 51.61 11.56C51.61 14.23 50.57 16.74 48.69 18.62L38.22 29.09C38.23 28.99 38.23 28.88 38.23 28.78C38.23 27.16 37.91 25.6 37.32 24.15L45.76 15.7C46.87 14.6 47.48 13.13 47.48 11.56C47.48 10 46.87 8.53 45.77 7.42C43.48 5.14 39.77 5.14 37.49 7.42L23.11 21.8C20.83 24.08 20.83 27.79 23.11 30.07C24.25 31.22 25.75 31.79 27.25 31.79C27.62 31.79 27.98 31.75 28.34 31.68L24.49 35.53C22.87 35.07 21.39 34.2 20.19 33C18.31 31.12 17.27 28.61 17.27 25.94C17.27 23.27 18.31 20.76 20.19 18.87L23.81 15.25C24.24 14.83 24.24 14.13 23.81 13.71C23.39 13.28 22.69 13.28 22.27 13.71L18.64 17.33C17.35 18.62 16.38 20.16 15.79 21.84L3.04 34.58C0.75 36.88 -0.52 39.93 -0.52 43.19C-0.52 46.44 0.75 49.5 3.04 51.8C5.34 54.09 8.4 55.36 11.65 55.36L11.65 55.36C14.91 55.36 17.96 54.09 20.26 51.8L34.67 37.39C35.96 36.09 36.93 34.56 37.52 32.88L50.23 20.17C52.53 17.87 53.79 14.82 53.79 11.56ZM39.03 8.97C40.46 7.54 42.79 7.54 44.22 8.97C44.91 9.66 45.29 10.58 45.29 11.56C45.29 12.54 44.91 13.46 44.22 14.16L36.25 22.12C35.8 21.43 35.27 20.77 34.67 20.17C33.48 18.99 32.08 18.07 30.54 17.46L39.03 8.97ZM24.66 28.53C23.98 27.85 23.62 26.96 23.59 26.07C25.03 24.76 27.26 24.8 28.65 26.19C29.33 26.87 29.69 27.75 29.72 28.65C29.05 29.26 28.18 29.6 27.25 29.6C26.27 29.6 25.35 29.22 24.66 28.53ZM22.77 37.25L14.25 45.78C13.55 46.47 12.63 46.85 11.65 46.85C10.67 46.85 9.75 46.47 9.06 45.78C8.37 45.09 7.99 44.17 7.99 43.19C7.99 42.21 8.37 41.29 9.06 40.59L17.06 32.6C17.51 33.29 18.04 33.94 18.64 34.54C19.83 35.73 21.23 36.65 22.77 37.25ZM33.12 35.84L18.71 50.25C16.83 52.13 14.32 53.17 11.65 53.17C8.98 53.17 6.47 52.13 4.59 50.25C2.71 48.37 1.67 45.86 1.67 43.19C1.67 40.52 2.71 38.01 4.59 36.13L15.09 25.63C15.09 25.73 15.08 25.83 15.08 25.94C15.08 27.55 15.4 29.12 15.99 30.57L7.51 39.05C6.41 40.15 5.8 41.62 5.8 43.19C5.8 44.75 6.41 46.22 7.51 47.33C8.65 48.47 10.15 49.04 11.65 49.04C13.15 49.04 14.65 48.47 15.79 47.33L30.2 32.92C32.48 30.64 32.48 26.92 30.2 24.64C28.78 23.22 26.81 22.69 24.97 23.03L28.82 19.19C30.44 19.65 31.92 20.52 33.12 21.72C35 23.6 36.04 26.11 36.04 28.78C36.04 31.45 35 33.96 33.12 35.84Z" fill="#1E959B" fill-opacity="1.000000" fill-rule="nonzero"/>
	<path id="XMLID_286_" d="M26.52 12.09C26.81 12.09 27.09 11.98 27.29 11.77C27.49 11.57 27.61 11.29 27.61 11C27.61 10.71 27.49 10.43 27.29 10.23C27.09 10.03 26.81 9.91 26.52 9.91C26.23 9.91 25.95 10.03 25.75 10.23C25.54 10.43 25.42 10.71 25.42 11C25.42 11.29 25.54 11.57 25.75 11.77C25.95 11.98 26.23 12.09 26.52 12.09Z" fill="#1E959B" fill-opacity="1.000000" fill-rule="nonzero"/>
</svg>
