<svg width="637.000000" height="155.000000" viewBox="0 0 637 155" fill="none" xmlns="http://www.w3.org/2000/svg" xmlns:xlink="http://www.w3.org/1999/xlink">
	<desc>
			Created with Pixso.
	</desc>
	<defs>
		<clipPath id="clip7105_847">
			<rect id="Logo" width="636.891052" height="154.559341" transform="translate(-0.663086 0.000000)" fill="white" fill-opacity="0"/>
		</clipPath>
		<linearGradient id="paint_linear_7105_850_0" x1="3.305923" y1="78.082214" x2="632.870605" y2="78.082214" gradientUnits="userSpaceOnUse">
			<stop stop-color="#AFDBDE"/>
			<stop offset="1.000000" stop-color="#C7E5E7"/>
		</linearGradient>
		<linearGradient id="paint_linear_7105_852_0" x1="0.268723" y1="78.344849" x2="634.559448" y2="78.344849" gradientUnits="userSpaceOnUse">
			<stop stop-color="#AFDBDE"/>
			<stop offset="1.000000" stop-color="#C7E5E7"/>
		</linearGradient>
	</defs>
	<rect id="Logo" width="636.891052" height="154.559341" transform="translate(-0.663086 0.000000)" fill="#FFFFFF" fill-opacity="0"/>
	<g clip-path="url(#clip7105_847)">
		<path id="Vector" d="M564.3 152.42L563.8 152.42L366.76 138.15L124.45 149.29L124.21 149.17L3.3 75.4L5.16 74.52L168.85 3.63L168.97 3.63L357.46 14.65L576.58 8.39L576.95 8.76L632.87 75.52L632.25 76.27L564.3 152.42ZM366.88 136.02L563.43 150.3L630.15 75.52L575.71 10.64L357.46 16.9L169.22 5.88L7.89 75.77L124.95 147.17L366.88 136.02Z" fill="url(#paint_linear_7105_850_0)" fill-opacity="1.000000" fill-rule="nonzero"/>
		<path id="Vector" d="M565.17 153.3L563.31 152.05L496.1 107.84L368.74 137.39L369.86 138.15L367.75 137.77L367.75 138.65L366.64 137.9L366.26 138.15L366.26 137.9L362.3 138.77L364.53 137.52L195.63 108.71L123.09 149.92L123.83 147.79L138.96 99.07L0.32 75.52L154.34 49.34L168.6 3.38L169.59 4L220.56 38.07L355.1 15.15L353.12 13.77L356.59 14.52L356.59 14.27L357.21 14.65L358.08 14.15L358.08 14.77L360.93 14.27L359.69 15.03L539.75 40.08L539.87 40.08L540.37 40.2L576.2 8.39L577.45 9.76L542.97 40.33L544.09 40.33L542.85 41.08L631.76 74.77L632.26 74.89L633.25 75.27L634.61 75.52L634.24 75.65L634.49 75.77L631.64 76.52L552.77 94.81L565.17 153.3ZM498.45 107.46L562.44 149.54L551.03 95.19L498.45 107.46ZM140.7 99.44L126.19 146.29L192.78 108.34L140.7 99.44ZM358.45 17.53L367.63 135.64L460.26 84.41L358.45 17.53ZM198.11 107.46L362.79 135.52L264.46 69.63L198.11 107.46ZM266.19 68.63L365.77 135.27L356.59 17.15L266.19 68.63ZM462 85.54L372.96 134.77L494.11 106.58L462 85.54ZM141.19 97.69L195.26 106.96L262.72 68.51L220.06 39.95L155.7 50.85L141.19 97.69ZM463.73 84.54L496.47 105.96L550.78 93.31L543.22 57.11L521.89 52.48L463.73 84.54ZM10.99 75.52L139.46 97.44L153.72 51.22L10.99 75.52ZM544.96 57.61L552.4 93.06L627.3 75.65L544.96 57.61ZM361.92 17.66L462 83.41L519.04 51.97L361.92 17.66ZM544.58 55.61L619.73 72.01L541.73 42.46L544.58 55.61ZM222.67 39.57L264.58 67.63L352.62 17.53L222.67 39.57ZM524.12 51.22L542.72 55.23L540 42.46L524.12 51.22ZM380.28 19.78L521.39 50.6L537.76 41.58L527.22 40.08L380.28 19.78ZM169.59 6.13L156.32 48.97L217.95 38.45L169.59 6.13Z" fill="url(#paint_linear_7105_852_0)" fill-opacity="1.000000" fill-rule="nonzero"/>
		<path id="Vector" d="M360.56 15.78C360.56 17.51 359.17 18.91 357.46 18.91C355.75 18.91 354.36 17.51 354.36 15.78C354.36 14.05 355.75 12.65 357.46 12.65C359.17 12.65 360.56 14.05 360.56 15.78Z" fill="#1E959B" fill-opacity="1.000000" fill-rule="evenodd"/>
		<path id="Vector" d="M129.41 148.17C129.41 150.8 127.3 152.93 124.7 152.93C122.1 152.93 119.99 150.8 119.99 148.17C119.99 145.54 122.1 143.41 124.7 143.41C127.3 143.41 129.41 145.54 129.41 148.17Z" fill="#1E959B" fill-opacity="1.000000" fill-rule="evenodd"/>
		<path id="Vector" d="M566.9 151.42C566.9 153.15 565.52 154.55 563.8 154.55C562.09 154.55 560.7 153.15 560.7 151.42C560.7 149.69 562.09 148.29 563.8 148.29C565.52 148.29 566.9 149.69 566.9 151.42Z" fill="#1E959B" fill-opacity="1.000000" fill-rule="evenodd"/>
		<path id="Vector" d="M636.22 75.52C636.22 78.15 634.11 80.28 631.51 80.28C628.91 80.28 626.8 78.15 626.8 75.52C626.8 72.89 628.91 70.76 631.51 70.76C634.11 70.76 636.22 72.89 636.22 75.52Z" fill="#1E959B" fill-opacity="1.000000" fill-rule="evenodd"/>
		<path id="Vector" d="M581.78 9.51C581.78 12.63 579.29 15.15 576.2 15.15C573.12 15.15 570.62 12.63 570.62 9.51C570.62 6.4 573.12 3.88 576.2 3.88C579.29 3.88 581.78 6.4 581.78 9.51Z" fill="#1E959B" fill-opacity="1.000000" fill-rule="evenodd"/>
		<path id="Vector" d="M373.21 137.14C373.21 140.67 370.38 143.53 366.88 143.53C363.39 143.53 360.56 140.67 360.56 137.14C360.56 133.62 363.39 130.76 366.88 130.76C370.38 130.76 373.21 133.62 373.21 137.14Z" fill="#1E959B" fill-opacity="1.000000" fill-rule="evenodd"/>
		<path id="Vector" d="M11.98 75.52C11.98 79.05 9.15 81.91 5.66 81.91C2.16 81.91 -0.67 79.05 -0.67 75.52C-0.67 71.99 2.16 69.13 5.66 69.13C9.15 69.13 11.98 71.99 11.98 75.52Z" fill="#1E959B" fill-opacity="1.000000" fill-rule="evenodd"/>
		<path id="Vector" d="M173.81 4.75C173.81 7.38 171.7 9.51 169.1 9.51C166.49 9.51 164.38 7.38 164.38 4.75C164.38 2.13 166.49 0 169.1 0C171.7 0 173.81 2.13 173.81 4.75Z" fill="#1E959B" fill-opacity="1.000000" fill-rule="evenodd"/>
		<path id="Vector" d="M84.9 40.95C89.24 42.96 92.46 45.71 94.82 49.34C97.17 52.98 98.29 57.23 98.29 62.12C98.29 67 97.17 71.26 94.82 74.89C92.46 78.53 89.24 81.28 84.9 83.29C80.56 85.17 75.6 86.17 69.77 86.17L56.37 86.17L56.37 104.45L41.25 104.45L41.25 38.07L69.64 38.07C75.47 38.07 80.56 38.95 84.9 40.95ZM79.32 70.64C81.67 68.63 82.91 65.88 82.91 62.12C82.91 58.36 81.67 55.48 79.32 53.48C76.96 51.47 73.49 50.47 68.9 50.47L56.5 50.47L56.5 73.52L68.9 73.52C73.36 73.64 76.84 72.64 79.32 70.64ZM133.38 89.8L124.33 89.8L124.33 104.45L109.45 104.45L109.45 49.84L134 49.84C141.44 49.84 147.39 51.6 151.74 55.23C156.08 58.86 158.31 63.75 158.31 70.01C158.31 74.02 157.32 77.4 155.46 80.41C153.6 83.29 150.87 85.67 147.39 87.29L159.42 104.45L143.43 104.45L133.38 89.8ZM140.82 63.75C139.09 62.24 136.48 61.62 133.01 61.62L124.33 61.62L124.33 78.53L133.01 78.53C136.48 78.53 139.09 77.78 140.82 76.4C142.56 74.89 143.43 72.89 143.43 70.14C143.43 67.25 142.56 65.13 140.82 63.75ZM180.75 101.82C176.29 99.57 172.57 96.06 169.96 91.68C167.36 87.42 166 82.54 166 77.15C166 71.76 167.36 66.88 169.96 62.62C172.57 58.24 176.29 54.73 180.75 52.48C185.34 50.1 190.55 48.84 196.25 48.84C201.96 48.84 207.17 50.1 211.75 52.48C216.22 54.73 219.94 58.36 222.54 62.62C225.15 67 226.51 71.76 226.51 77.15C226.51 82.54 225.15 87.42 222.54 91.68C219.94 95.94 216.22 99.44 211.75 101.82C207.17 104.2 201.96 105.46 196.25 105.46C190.55 105.46 185.34 104.2 180.75 101.82ZM204.19 91.18C206.55 89.8 208.41 87.8 209.65 85.42C211.01 82.91 211.63 80.03 211.63 77.15C211.63 74.02 211.01 71.26 209.65 68.88C208.41 66.5 206.42 64.5 204.19 63.12C199.35 60.37 193.4 60.37 188.56 63.12C186.21 64.5 184.35 66.5 182.98 68.88C181.62 71.26 181 74.14 181 77.15C181 80.03 181.62 82.79 182.98 85.42C184.22 87.8 186.21 89.8 188.56 91.18C193.28 93.93 199.23 93.93 204.19 91.18ZM237.17 49.84L262.6 49.84C268.67 49.84 274.13 50.97 278.72 53.1C283.3 55.23 286.9 58.49 289.51 62.62C291.99 66.75 293.35 71.51 293.35 77.15C293.35 82.66 292.11 87.42 289.51 91.55C287.02 95.69 283.43 98.82 278.72 101.07C274.13 103.33 268.67 104.45 262.6 104.45L237.17 104.45L237.17 49.84ZM262.1 92.68C267.06 92.68 271.03 91.3 273.88 88.67C276.73 86.04 278.22 82.16 278.22 77.27C278.22 72.39 276.73 68.51 273.88 65.75C271.03 63 267.06 61.62 262.1 61.62L251.93 61.62L251.93 92.68L262.1 92.68ZM310.09 98.94C305.63 94.56 303.39 88.55 303.39 80.91L303.39 49.84L318.27 49.84L318.27 80.41C318.27 84.66 319.14 87.8 321 89.92C322.86 92.05 325.59 93.18 329.19 93.18C332.66 93.18 335.39 92.05 337.12 89.92C338.98 87.8 339.85 84.54 339.85 80.41L339.85 49.84L354.48 49.84L354.48 80.91C354.48 88.55 352.25 94.56 347.79 98.94C343.32 103.33 337 105.46 328.94 105.46C320.88 105.46 314.55 103.33 310.09 98.94ZM379.04 101.82C374.57 99.57 370.85 96.06 368.25 91.68C365.64 87.42 364.28 82.54 364.28 77.15C364.28 71.76 365.64 66.88 368.25 62.62C370.85 58.36 374.57 54.85 379.04 52.48C383.62 50.1 388.71 48.84 394.41 48.84C399.62 48.84 404.09 49.59 407.93 51.22C411.77 52.85 415 55.36 417.73 58.86L408.18 67.63C404.58 63.25 400.24 61.12 395.03 61.12C390.45 61.12 386.72 62.62 383.75 65.63C380.77 68.63 379.29 72.51 379.29 77.27C379.29 80.41 379.9 83.29 381.27 85.67C382.51 88.05 384.49 90.05 386.85 91.3C389.33 92.68 392.18 93.31 395.03 93.31C400.24 93.31 404.58 91.18 408.18 86.79L417.73 95.56C415.12 98.94 411.77 101.45 407.93 103.08C404.09 104.7 399.62 105.46 394.41 105.46C388.83 105.46 383.62 104.2 379.04 101.82ZM437.2 61.49L420.21 61.49L420.21 49.84L469.06 49.84L469.06 61.49L452.08 61.49L452.08 104.33L437.2 104.33L437.2 61.49ZM487.17 44.08L487.17 70.14L521.15 70.14L521.15 76.15L487.17 76.15L487.17 104.33L480.22 104.33L480.22 37.95L525.24 37.95L525.24 43.96L487.17 44.08ZM538.01 50.85L544.71 50.85L544.71 104.45L538.01 104.45L538.01 50.85ZM573.72 56.48L555 56.48L555 50.85L599.15 50.85L599.15 56.48L580.42 56.48L580.42 104.45L573.72 104.45L573.72 56.48ZM537.14 39.82C536.03 42.2 537.14 45.09 539.5 46.09C541.86 47.21 544.71 46.09 545.7 43.71C546.82 41.33 545.7 38.45 543.34 37.45C540.99 36.32 538.14 37.32 537.14 39.82Z" fill="#1E959B" fill-opacity="1.000000" fill-rule="nonzero"/>
	</g>
</svg>
