<svg width="123.000000" height="94.000000" viewBox="0 0 123 94" fill="none" xmlns="http://www.w3.org/2000/svg" xmlns:xlink="http://www.w3.org/1999/xlink">
	<desc>
			Created with Pixso.
	</desc>
	<defs>
		<clipPath id="clip7105_878">
			<rect id="svg-editor-image-6" width="123.355202" height="93.268562" transform="translate(-0.745605 -0.027832)" fill="white" fill-opacity="0"/>
		</clipPath>
	</defs>
	<rect id="svg-editor-image-6" width="123.355202" height="93.268562" transform="translate(-0.745605 -0.027832)" fill="#1E959B" fill-opacity="0"/>
	<g clip-path="url(#clip7105_878)">
		<path id="svg 7" d="M78.91 47.82L114.13 70.08L114.13 24.61L78.91 47.82Z" fill="#1E959B" fill-opacity="1.000000" fill-rule="nonzero"/>
		<path id="svg 10" d="M9.66 24.61L9.66 70.08L44.88 47.82L9.66 24.61Z" fill="#1E959B" fill-opacity="1.000000" fill-rule="nonzero"/>
		<path id="svg 13" d="M107.6 11.37L16.19 11.37C12.93 11.37 10.35 13.8 9.86 16.93L61.89 51.21L113.93 16.93C113.44 13.8 110.86 11.37 107.6 11.37Z" fill="#1E959B" fill-opacity="1.000000" fill-rule="nonzero"/>
		<path id="svg 16" d="M72.93 51.76L63.69 57.85C63.14 58.21 62.52 58.38 61.9 58.38C61.27 58.38 60.65 58.21 60.1 57.85L50.86 51.75L9.87 77.68C10.37 80.78 12.95 83.19 16.19 83.19L107.6 83.19C110.85 83.19 113.42 80.78 113.92 77.68L72.93 51.76Z" fill="#1E959B" fill-opacity="1.000000" fill-rule="nonzero"/>
	</g>
</svg>
