<svg width="48.000000" height="85.000000" viewBox="0 0 48 85" fill="none" xmlns="http://www.w3.org/2000/svg" xmlns:xlink="http://www.w3.org/1999/xlink">
	<desc>
			Created with Pixso.
	</desc>
	<defs/>
	<path id="Vector" d="M41.06 0L5.53 0C2.14 0 -0.61 2.75 -0.61 6.15L-0.61 78.28C-0.61 81.67 2.14 84.43 5.53 84.43L41.06 84.43C44.45 84.43 47.21 81.67 47.21 78.28L47.21 6.15C47.21 2.75 44.45 0 41.06 0ZM42.6 68.41L4 68.41L4 10.37L42.6 10.37L42.6 68.41ZM31.53 6.24L15.06 6.24L15.06 4.44L31.54 4.44L31.53 6.24ZM38.58 5.42C38.58 6.29 37.87 6.99 37.01 6.99C36.14 6.99 35.43 6.28 35.43 5.42C35.43 4.55 36.14 3.85 37.01 3.85C37.88 3.84 38.58 4.55 38.58 5.42ZM30.8 77.87L15.8 77.87L15.8 73.26L30.8 73.26L30.8 77.87Z" fill="#1E959B" fill-opacity="1.000000" fill-rule="nonzero"/>
</svg>
