<svg width="123.000000" height="94.000000" viewBox="0 0 123 94" fill="none" xmlns="http://www.w3.org/2000/svg" xmlns:xlink="http://www.w3.org/1999/xlink">
	<desc>
			Created with Pixso.
	</desc>
	<defs>
		<clipPath id="clip7105_898">
			<rect id="svg-editor-image-7" width="123.355202" height="93.268562" transform="translate(-0.886230 -0.027832)" fill="white" fill-opacity="0"/>
		</clipPath>
	</defs>
	<rect id="svg-editor-image-7" width="123.355202" height="93.268562" transform="translate(-0.886230 -0.027832)" fill="#1E959B" fill-opacity="0"/>
	<g clip-path="url(#clip7105_898)">
		<path id="svg 37" d="M46.6 58.8L44.87 83.22C47.35 83.22 48.43 82.15 49.72 80.87L61.37 69.74L85.5 87.41C89.93 89.88 93.04 88.58 94.24 83.34L110.08 9.11L110.08 9.11C111.49 2.57 107.72 0.01 103.41 1.61L10.29 37.26C3.93 39.73 4.03 43.27 9.21 44.88L33.02 52.28L88.31 17.68C90.91 15.96 93.28 16.91 91.33 18.63L46.6 58.8L46.6 58.8Z" fill="#1E959B" fill-opacity="1.000000" fill-rule="nonzero"/>
	</g>
</svg>
